HIERARCHY
ROOT Hips
{
	OFFSET 0.00000 0.00000 0.00000
	CHANNELS 6 Xposition Yposition Zposition Zrotation Yrotation Xrotation 
	JOINT LHipJoint
	{
		OFFSET 0 0 0
		CHANNELS 3 Zrotation Yrotation Xrotation
		JOINT LeftUpLeg
		{
			OFFSET 1.37590 -1.78394 0.89329
			CHANNELS 3 Zrotation Yrotation Xrotation
			JOINT LeftLeg
			{
				OFFSET 2.47928 -6.81178 0.00000
				CHANNELS 3 Zrotation Yrotation Xrotation
				JOINT LeftFoot
				{
					OFFSET 2.63345 -7.23535 0.00000
					CHANNELS 3 Zrotation Yrotation Xrotation
					JOINT LeftToeBase
					{
						OFFSET 0.23938 -0.65768 2.27012
						CHANNELS 3 Zrotation Yrotation Xrotation
						End Site
						{
							OFFSET 0.00000 -0.00000 1.18363
						}
					}
				}
			}
		}
	}
	JOINT RHipJoint
	{
		OFFSET 0 0 0
		CHANNELS 3 Zrotation Yrotation Xrotation
		JOINT RightUpLeg
		{
			OFFSET -1.33617 -1.78394 0.89329
			CHANNELS 3 Zrotation Yrotation Xrotation
			JOINT RightLeg
			{
				OFFSET -2.56922 -7.05888 0.00000
				CHANNELS 3 Zrotation Yrotation Xrotation
				JOINT RightFoot
				{
					OFFSET -2.56568 -7.04915 0.00000
					CHANNELS 3 Zrotation Yrotation Xrotation
					JOINT RightToeBase
					{
						OFFSET -0.27533 -0.75646 2.18105
						CHANNELS 3 Zrotation Yrotation Xrotation
						End Site
						{
							OFFSET -0.00000 -0.00000 1.15233
						}
					}
				}
			}
		}
	}
	JOINT LowerBack
	{
		OFFSET 0 0 0
		CHANNELS 3 Zrotation Yrotation Xrotation
		JOINT Spine
		{
			OFFSET 0.06190 2.15152 -0.00935
			CHANNELS 3 Zrotation Yrotation Xrotation
			JOINT Spine1
			{
				OFFSET 0.06334 2.15332 0.00872
				CHANNELS 3 Zrotation Yrotation Xrotation
				JOINT Neck
				{
					OFFSET 0 0 0
					CHANNELS 3 Zrotation Yrotation Xrotation
					JOINT Neck1
					{
						OFFSET -0.04202 1.66908 0.23524
						CHANNELS 3 Zrotation Yrotation Xrotation
						JOINT Head
						{
							OFFSET 0.07510 1.69357 -0.24440
							CHANNELS 3 Zrotation Yrotation Xrotation
							End Site
							{
								OFFSET 0.02556 1.71719 -0.11000
							}
						}
					}
				}
				JOINT LeftShoulder
				{
					OFFSET 0 0 0
					CHANNELS 3 Zrotation Yrotation Xrotation
					JOINT LeftArm
					{
						OFFSET 3.67168 1.26306 -0.41342
						CHANNELS 3 Zrotation Yrotation Xrotation
						JOINT LeftForeArm
						{
							OFFSET 4.68510 -0.00000 -0.00000
							CHANNELS 3 Zrotation Yrotation Xrotation
							JOINT LeftHand
							{
								OFFSET 3.39626 -0.00000 -0.00000
								CHANNELS 3 Zrotation Yrotation Xrotation
								JOINT LeftFingerBase
								{
									OFFSET 0 0 0
									CHANNELS 3 Zrotation Yrotation Xrotation
									JOINT LeftHandIndex1
									{
										OFFSET 0.48608 -0.00000 -0.00000
										CHANNELS 3 Zrotation Yrotation Xrotation
										End Site
										{
											OFFSET 0.39189 -0.00000 -0.00000
										}
									}
								}
								JOINT LThumb
								{
									OFFSET 0 0 0
									CHANNELS 3 Zrotation Yrotation Xrotation
									End Site
									{
										OFFSET 0.39787 -0.00000 0.39787
									}
								}
							}
						}
					}
				}
				JOINT RightShoulder
				{
					OFFSET 0 0 0
					CHANNELS 3 Zrotation Yrotation Xrotation
					JOINT RightArm
					{
						OFFSET -3.04136 1.42992 -0.76390
						CHANNELS 3 Zrotation Yrotation Xrotation
						JOINT RightForeArm
						{
							OFFSET -5.55576 -0.00000 -0.00000
							CHANNELS 3 Zrotation Yrotation Xrotation
							JOINT RightHand
							{
								OFFSET -3.32774 -0.00000 -0.00000
								CHANNELS 3 Zrotation Yrotation Xrotation
								JOINT RightFingerBase
								{
									OFFSET 0 0 0
									CHANNELS 3 Zrotation Yrotation Xrotation
									JOINT RightHandIndex1
									{
										OFFSET -0.50763 -0.00000 -0.00000
										CHANNELS 3 Zrotation Yrotation Xrotation
										End Site
										{
											OFFSET -0.40926 -0.00000 -0.00000
										}
									}
								}
								JOINT RThumb
								{
									OFFSET 0 0 0
									CHANNELS 3 Zrotation Yrotation Xrotation
									End Site
									{
										OFFSET -0.41551 -0.00000 0.41551
									}
								}
							}
						}
					}
				}
			}
		}
	}
}
MOTION
Frames: 9
Frame Time: .0083333
2.3380 18.1099 -0.3586 -28.2308 -70.2874 33.7001 0.0000 0.0000 0.0000 -4.4794 -13.3778 -26.0114 6.7272 15.0978 47.8350 -0.0539 -6.1546 -2.6309 0.9687 -6.2663 -17.5591 0.0000 0.0000 0.0000 27.5967 3.7130 -11.2515 -1.1066 -6.6836 18.7814 0.3709 -13.5725 -13.8821 -0.1992 -2.8739 7.9279 13.0157 3.0037 3.1060 10.8796 4.7300 -3.6843 4.0036 1.8234 -5.5937 -6.4287 -6.3903 -17.2324 0.0508 -7.1380 14.4901 0.2223 -3.7776 7.5219 0.0000 -0.0000 0.0000 -78.5404 -16.2344 27.0079 27.2892 -38.4535 -9.6784 -0.0000 -0.0000 9.8982 8.9520 23.2349 3.5560 -7.1250 0.0000 -0.0000 -20.5699 52.2830 -3.8199 0.0000 -0.0000 0.0000 82.1028 60.0885 -6.2539 -27.0470 38.2239 -9.5282 0.0000 -0.0000 -11.1488 -20.0565 -44.2934 14.3030 7.1250 -0.0000 -0.0000 32.0461 -74.0135 -22.5439
2.1972 18.1148 -0.3517 -28.2403 -70.0291 33.7817 0.0000 0.0000 0.0000 -4.1796 -13.5022 -26.5029 6.4445 14.8457 46.7405 -0.0172 -5.5465 -3.3417 0.9411 -6.1787 -17.3039 0.0000 0.0000 0.0000 27.8898 3.5775 -10.7683 -1.0894 -6.6332 18.6332 0.3579 -13.5551 -14.0918 -0.1730 -2.6794 7.3874 13.0536 3.1459 3.0865 10.7243 4.9232 -3.6912 3.8009 1.9186 -5.5674 -6.5894 -6.5938 -17.2069 0.3232 -7.4222 14.3160 0.3053 -3.8926 7.4857 0.0000 0.0000 0.0000 -78.5652 -15.4868 27.1291 27.7896 -38.9218 -9.9912 -0.0000 -0.0000 9.8826 8.9420 22.9892 3.5166 -7.1250 0.0000 -0.0000 -20.4515 52.0512 -3.6772 0.0000 0.0000 0.0000 81.8951 60.0592 -5.8823 -26.0883 37.2958 -8.9411 0.0000 -0.0000 -11.6132 -19.3926 -43.5797 13.6399 7.1250 -0.0000 -0.0000 31.1852 -73.2157 -21.3936
2.0558 18.1186 -0.3434 -28.2255 -69.7854 33.8450 0.0000 0.0000 0.0000 -3.9054 -13.6180 -26.9532 6.1426 14.5651 45.5513 0.0159 -4.9751 -3.9962 0.9083 -6.0730 -16.9965 0.0000 0.0000 0.0000 28.1622 3.4461 -10.3025 -1.0752 -6.5913 18.5101 0.3446 -13.5354 -14.2964 -0.1474 -2.4743 6.8184 13.0710 3.2809 3.0597 10.5647 5.1036 -3.6933 3.6062 2.0089 -5.5318 -6.7423 -6.7825 -17.1795 0.5911 -7.6868 14.1382 0.3879 -3.9987 7.4480 -0.0000 -0.0000 0.0000 -78.5938 -14.7077 27.2084 28.2839 -39.3762 -10.3033 -0.0000 -0.0000 9.8668 8.9470 22.7641 3.4860 -7.1250 0.0000 -0.0000 -20.3311 51.8410 -3.5465 -0.0000 -0.0000 0.0000 81.7248 59.9314 -5.4097 -25.2855 36.4944 -8.4591 0.0000 -0.0000 -12.0715 -18.8284 -42.9283 13.0744 7.1250 -0.0000 -0.0000 30.4537 -72.4982 -20.4091
1.9138 18.1212 -0.3337 -28.1879 -69.5554 33.8891 0.0000 0.0000 0.0000 -3.6562 -13.7263 -27.3597 5.8256 14.2571 44.2775 0.0450 -4.4419 -4.5813 0.8717 -5.9526 -16.6470 0.0000 0.0000 0.0000 28.4148 3.3175 -9.8521 -1.0642 -6.5584 18.4136 0.3312 -13.5144 -14.4965 -0.1228 -2.2591 6.2223 13.0682 3.4087 3.0260 10.4013 5.2711 -3.6902 3.4202 2.0945 -5.4869 -6.8870 -6.9566 -17.1488 0.8546 -7.9325 13.9561 0.4701 -4.0959 7.4083 -0.0000 -0.0000 0.0000 -78.6284 -13.9002 27.2452 28.7664 -39.8122 -10.6108 -0.0000 -0.0000 9.8550 8.9643 22.5729 3.4652 -7.1250 0.0000 -0.0000 -20.2176 51.6644 -3.4354 -0.0000 -0.0000 0.0000 81.5966 59.7052 -4.8345 -24.6254 35.8187 -8.0697 0.0000 -0.0000 -12.5149 -18.3521 -42.3185 12.5896 7.1250 -0.0000 -0.0000 29.7870 -71.8414 -19.5257
1.7711 18.1226 -0.3226 -28.1283 -69.3378 33.9134 0.0000 0.0000 0.0000 -3.4311 -13.8278 -27.7221 5.4985 13.9241 42.9341 0.0697 -3.9466 -5.0843 0.8340 -5.8259 -16.2801 0.0000 0.0000 0.0000 28.6484 3.1897 -9.4191 -1.0568 -6.5363 18.3488 0.3177 -13.4928 -14.6926 -0.0994 -2.0332 5.5973 13.0457 3.5289 2.9875 10.2349 5.4259 -3.6826 3.2430 2.1752 -5.4349 -7.0252 -7.1163 -17.1148 1.1150 -8.1592 13.7710 0.5526 -4.1845 7.3671 -0.0000 0.0000 0.0000 -78.6719 -13.0665 27.2398 29.2306 -40.2247 -10.9093 -0.0000 -0.0000 9.8489 8.9974 22.4107 3.4545 -7.1250 0.0000 -0.0000 -20.1047 51.5174 -3.3405 -0.0000 0.0000 0.0000 81.5108 59.3796 -4.1598 -24.0990 35.2687 -7.7636 0.0000 -0.0000 -12.9282 -17.9425 -41.7490 12.1676 7.1250 -0.0000 -0.0000 29.1860 -71.2370 -18.7349
1.6278 18.1228 -0.3100 -28.0505 -69.1293 33.9198 0.0000 0.0000 0.0000 -3.2262 -13.9234 -28.0420 5.1665 13.5689 41.5373 0.0895 -3.4818 -5.4917 0.7970 -5.6982 -15.9112 0.0000 0.0000 0.0000 28.8663 3.0625 -9.0048 -1.0534 -6.5263 18.3194 0.3046 -13.4748 -14.8846 -0.0775 -1.7963 4.9431 13.0054 3.6408 2.9448 10.0667 5.5673 -3.6704 3.0752 2.2506 -5.3764 -7.1552 -7.2618 -17.0774 1.3694 -8.3674 13.5832 0.6341 -4.2647 7.3240 -0.0000 0.0000 0.0000 -78.7253 -12.2092 27.1937 29.6708 -40.6096 -11.1947 -0.0000 -0.0000 9.8498 9.0493 22.2780 3.4552 -7.1250 0.0000 -0.0000 -19.9895 51.4011 -3.2615 -0.0000 0.0000 0.0000 81.4745 58.9552 -3.3864 -23.6945 34.8395 -7.5313 0.0000 -0.0000 -13.3047 -17.5935 -41.2239 11.8030 7.1250 -0.0000 -0.0000 28.6469 -70.6870 -18.0319
1.4836 18.1217 -0.2960 -27.9550 -68.9295 33.9074 0.0000 0.0000 0.0000 -3.0419 -14.0136 -28.3190 4.8343 13.1947 40.1018 0.1044 -3.0494 -5.8029 0.7592 -5.5645 -15.5258 0.0000 0.0000 0.0000 29.0692 2.9357 -8.6088 -1.0546 -6.5298 18.3295 0.2921 -13.4619 -15.0732 -0.0575 -1.5478 4.2576 12.9468 3.7448 2.8975 9.8976 5.6958 -3.6535 2.9179 2.3209 -5.3116 -7.2782 -7.3935 -17.0355 1.6186 -8.5574 13.3930 0.7150 -4.3367 7.2790 0.0000 -0.0000 0.0000 -78.7928 -11.3329 27.1066 30.0794 -40.9614 -11.4617 -0.0000 -0.0000 9.8633 9.1149 22.1667 3.4642 -7.1250 0.0000 -0.0000 -19.8724 51.3071 -3.1940 0.0000 -0.0000 0.0000 81.4809 58.4332 -2.5271 -23.4044 34.5281 -7.3662 0.0000 -0.0000 -13.6313 -17.2897 -40.7417 11.4833 7.1250 -0.0000 -0.0000 28.1705 -70.1855 -17.4102
1.3388 18.1193 -0.2805 -27.8446 -68.7377 33.8781 0.0000 0.0000 0.0000 -2.8768 -14.0994 -28.5558 4.5060 12.8049 38.6424 0.1147 -2.6612 -6.0292 0.7232 -5.4340 -15.1508 0.0000 0.0000 0.0000 29.2584 2.8096 -8.2339 -1.0609 -6.5486 18.3848 0.2802 -13.4557 -15.2584 -0.0398 -1.2884 3.5427 12.8706 3.8407 2.8461 9.7287 5.8113 -3.6312 2.7719 2.3862 -5.2401 -7.3952 -7.5118 -16.9909 1.8629 -8.7295 13.2009 0.7957 -4.4006 7.2325 0.0000 -0.0000 0.0000 -78.8763 -10.4411 26.9783 30.4500 -41.2760 -11.7053 -0.0000 -0.0000 9.8914 9.2018 22.0770 3.4843 -7.1250 0.0000 -0.0000 -19.7461 51.2366 -3.1373 0.0000 -0.0000 0.0000 81.5292 57.8159 -1.5918 -23.2209 34.3295 -7.2625 0.0000 -0.0000 -13.8926 -17.0205 -40.2877 11.1967 7.1250 -0.0000 -0.0000 27.7335 -69.7170 -16.8427
1.1933 18.1156 -0.2636 -27.7240 -68.5540 33.8337 0.0000 0.0000 0.0000 -2.7304 -14.1800 -28.7516 4.1850 12.4027 37.1717 0.1213 -2.3351 -6.1842 0.6928 -5.3208 -14.8259 0.0000 0.0000 0.0000 29.4349 2.6830 -7.8819 -1.0731 -6.5850 18.4915 0.2692 -13.4565 -15.4402 -0.0249 -1.0196 2.8028 12.7794 3.9287 2.7935 9.5603 5.9147 -3.6027 2.6361 2.4466 -5.1626 -7.5065 -7.6172 -16.9462 2.1027 -8.8842 13.0084 0.8760 -4.4568 7.1852 0.0000 -0.0000 0.0000 -78.9775 -9.5392 26.8095 30.7763 -41.5496 -11.9212 -0.0000 -0.0000 9.9384 9.3089 22.0303 3.5184 -7.1250 0.0000 -0.0000 -19.6220 51.2100 -3.1031 0.0000 -0.0000 0.0000 81.6154 57.1076 -0.5959 -23.1348 34.2359 -7.2140 0.0000 -0.0000 -14.0728 -16.7731 -39.8685 10.9354 7.1250 -0.0000 -0.0000 27.3538 -69.2835 -16.3398
